<?xml version="1.0" encoding="UTF-8" standalone="no"?>
<!-- Created with Inkscape (http://www.inkscape.org/) -->

<svg
   width="210mm"
   height="297mm"
   viewBox="0 0 210 297"
   version="1.1"
   id="svg2037"
   inkscape:version="1.2.2 (b0a8486541, 2022-12-01)"
   sodipodi:docname="book.svg"
   xmlns:inkscape="http://www.inkscape.org/namespaces/inkscape"
   xmlns:sodipodi="http://sodipodi.sourceforge.net/DTD/sodipodi-0.dtd"
   xmlns="http://www.w3.org/2000/svg"
   xmlns:svg="http://www.w3.org/2000/svg">
  <sodipodi:namedview
     id="namedview2039"
     pagecolor="#ffffff"
     bordercolor="#000000"
     borderopacity="0.25"
     inkscape:showpageshadow="2"
     inkscape:pageopacity="0.0"
     inkscape:pagecheckerboard="0"
     inkscape:deskcolor="#d1d1d1"
     inkscape:document-units="mm"
     showgrid="false"
     showguides="true"
     inkscape:zoom="0.54803752"
     inkscape:cx="238.12238"
     inkscape:cy="412.38052"
     inkscape:window-width="1904"
     inkscape:window-height="1024"
     inkscape:window-x="6"
     inkscape:window-y="46"
     inkscape:window-maximized="1"
     inkscape:current-layer="layer1">
    <sodipodi:guide
       position="185.02758,101.38966"
       orientation="0,-1"
       id="guide11821"
       inkscape:locked="false" />
  </sodipodi:namedview>
  <defs
     id="defs2034" />
  <circle
     style="display:inline;fill:#000000;stroke-width:0.0784771;paint-order:stroke fill markers"
     id="path386"
     cx="27.5"
     cy="27.5"
     inkscape:transform-center-x="-0.1945821"
     inkscape:export-filename="./path2.svg"
     inkscape:export-xdpi="187.5"
     inkscape:export-ydpi="187.5"
     r="27.5" />
  <g
     inkscape:groupmode="layer"
     id="layer2"
     inkscape:label="Layer 2" />
  <g
     inkscape:label="Layer 1"
     inkscape:groupmode="layer"
     id="layer1"
     transform="matrix(1.3295874,0,0,1.3295874,312.97765,-15.91123)">
    <!--! Font Awesome Pro 6.3.0 by @fontawesome - https://fontawesome.com License - https://fontawesome.com/license (Commercial License) Copyright 2023 Fonticons, Inc. -->
    <path
       d="m -216.25826,41.482547 c 0.43504,0.153069 0.9023,-0.165153 0.9023,-0.62436 v -15.20216 c 0,-0.169181 -0.0644,-0.338363 -0.20141,-0.443095 -0.78951,-0.628387 -2.60217,-1.434013 -4.95459,-1.434013 -2.03421,0 -3.93549,0.535741 -5.07142,0.970779 -0.45518,0.177238 -0.72909,0.628387 -0.72909,1.115791 v 14.916163 c 0,0.479347 0.5156,0.813682 0.97078,0.664642 1.26886,-0.422954 3.2789,-0.910358 4.82973,-0.910358 1.36553,0 3.18222,0.563939 4.2537,0.946611 z m 3.0936,0 c 1.07149,-0.382672 2.88817,-0.946611 4.25371,-0.946611 1.55083,0 3.56086,0.487404 4.82973,0.910358 0.45517,0.153068 0.97077,-0.185295 0.97077,-0.664642 V 25.865489 c 0,-0.487404 -0.27391,-0.938553 -0.72909,-1.111763 -1.13593,-0.439066 -3.03721,-0.974807 -5.07141,-0.974807 -2.35243,0 -4.16509,0.805626 -4.9546,1.434013 -0.13293,0.104732 -0.20141,0.273914 -0.20141,0.443095 v 15.20216 c 0,0.459207 0.47129,0.777429 0.9023,0.62436 z"
       id="path7240"
       style="fill:#ffffff;stroke-width:0.0402814" />
  </g>
</svg>
